<svg width="329" height="200" viewBox="0 0 329 200" fill="none" xmlns="http://www.w3.org/2000/svg">
<g filter="url(#filter0_d_24_691)">
<g filter="url(#filter1_d_24_691)">
<path fill-rule="evenodd" clip-rule="evenodd" d="M279.164 165.444C279.217 165.728 279.245 166.011 279.245 166.296C279.244 178.743 228.47 188.831 165.839 188.831C103.207 188.831 52.4333 178.743 52.4324 166.296C52.4333 154.083 101.339 144.138 162.363 143.773C167.183 148.026 173.377 150.534 180.646 150.534C188.292 150.534 194.155 148.504 198.722 144.728C209.462 145.374 219.528 146.325 228.661 147.534C233.54 150.646 239.233 152.372 244.7 153.107C248.589 153.631 252.753 153.453 256.903 152.868C263.49 154.628 268.814 156.586 272.611 158.688L276.554 147.741C278.788 146.947 280.963 146.117 283.038 145.283C284.405 144.735 285.736 144.179 287.02 143.63L279.164 165.444ZM165.839 152.288C134.899 152.288 107.119 154.787 87.2793 158.73C77.29 160.714 69.7477 162.982 64.9068 165.256C64.1211 165.625 63.4543 165.976 62.891 166.296C63.4544 166.618 64.1208 166.969 64.9068 167.338C69.7477 169.612 77.2897 171.88 87.2793 173.864C107.119 177.807 134.899 180.304 165.839 180.304C196.778 180.304 224.558 177.807 244.398 173.864C254.387 171.88 261.93 169.612 266.77 167.338C267.556 166.969 268.222 166.617 268.785 166.296C268.222 165.976 267.556 165.625 266.77 165.256C261.93 162.982 254.387 160.714 244.398 158.73C224.558 154.787 196.778 152.288 165.839 152.288Z" fill="#CAFF00"/>
</g>
<g filter="url(#filter2_d_24_691)">
<path d="M255.746 93.2018L322.192 45.9782L294 124.248C293.254 124.63 292.379 125.074 291.392 125.561C289.142 126.671 286.327 128.004 283.16 129.397L305.066 68.5771L257.692 102.247L263.552 129.5L274.284 133.02C269.859 134.684 265.247 136.192 260.812 137.252C260.622 137.297 260.433 137.34 260.246 137.382L256.33 136.096L250.197 107.574L230.523 121.557C230.854 118.061 232.009 113.697 234.481 108.315L248.253 98.5286L246.063 88.3496L246.068 88.3401L244.861 82.8576L244.877 82.835L237.723 49.5646L169.775 130.439C169.739 130.391 169.702 130.342 169.667 130.293C168.08 128.093 166.806 125.21 166 121.752L196.177 85.8338L187.367 66.6833C187.444 66.616 187.521 66.5484 187.598 66.4811L194.025 60.9176L202.195 78.6728L242.347 30.8817L255.746 93.2018Z" fill="#CAFF00"/>
</g>
<g filter="url(#filter3_d_24_691)">
<path d="M190.67 53.6235H182.887C182.378 53.6235 181.872 53.6324 181.369 53.6472L165.678 19.5429L137.669 75.505C133.119 80.0348 128.929 84.8841 125.043 89.6571C121.392 94.1404 117.887 98.7197 114.546 103.082C114.411 103.257 114.276 103.431 114.143 103.606L122.978 85.9564L91.113 49.5124L81.5132 98.625L104.476 115.903C102.526 118.259 100.657 120.399 98.856 122.309L79.6999 107.896L74.3157 135.442C67.3195 136.238 60.1982 135.38 53.7553 133.818L66.8661 129.517L72.1962 102.251L22.8247 65.1025L47.7102 132.103C44.8229 131.165 42.3044 130.18 40.2982 129.32C39.0003 128.763 37.9271 128.264 37.1184 127.872L4.82581 40.9262L74.0083 92.9794L86.1376 30.9365L127.078 77.7617L165.999 0L190.67 53.6235Z" fill="#CAFF00"/>
</g>
<g filter="url(#filter4_d_24_691)">
<path d="M151.042 105.17C150.702 107.973 150.547 110.731 150.57 113.416C150.582 114.868 150.646 116.311 150.765 117.739L135.314 100.067C135.618 99.6902 135.921 99.3138 136.226 98.939C137.754 97.0635 139.282 95.239 140.817 93.4755L151.042 105.17Z" fill="#CAFF00"/>
</g>
<g filter="url(#filter5_d_24_691)">
<path d="M184.85 63.2444C168.15 77.6958 160.692 97.4142 160.825 113.329C160.891 121.293 162.852 128.087 166.254 132.802C169.587 137.425 174.377 140.18 180.646 140.18C187.233 140.18 190.92 138.258 193.553 135.476C196.407 132.46 198.243 128.257 200.67 122.901C203.022 117.715 205.821 111.757 210.617 106.27C215.459 100.733 222.219 95.7949 232.361 92.3359L240.312 89.6237L235.889 96.8264C225.7 113.416 224.751 124.337 227.542 131.096C230.305 137.794 237.288 141.667 246.053 142.846C250.419 143.432 256.058 142.775 262.26 141.305C268.409 139.847 274.871 137.649 280.785 135.347C284.862 133.76 288.655 132.13 291.875 130.679L289.057 138.547C287.126 139.364 285.08 140.204 282.955 141.029C276.893 143.389 270.15 145.69 263.637 147.233C257.178 148.764 250.699 149.613 245.257 148.883C235.47 147.566 225.919 142.997 221.973 133.438C218.676 125.451 219.681 114.88 226.357 101.507C221.492 104.1 217.919 107.123 215.14 110.3C210.988 115.05 208.498 120.27 206.156 125.437C203.89 130.433 201.628 135.759 197.915 139.683C193.98 143.841 188.63 146.271 180.646 146.271C172.345 146.271 165.784 142.498 161.377 136.389C157.038 130.372 154.866 122.231 154.793 113.38C154.663 97.9236 160.915 79.6404 174.499 64.8562C158.382 68.2688 145.2 81.2024 132.964 96.2317C129.427 100.576 126.016 105.031 122.657 109.417C119.309 113.787 116.006 118.096 112.733 122.076C106.243 129.963 99.5881 136.921 92.4372 140.656C78.3232 148.025 62.3465 146.388 50.2633 143.157C47.1554 142.327 44.271 141.38 41.698 140.434L38.7549 132.709C42.1561 134.179 46.6635 135.895 51.8067 137.269C63.325 140.349 77.5153 141.59 89.6663 135.245C95.6481 132.122 101.644 126.024 108.093 118.185C111.288 114.301 114.526 110.078 117.886 105.691C121.235 101.319 124.701 96.7904 128.305 92.3644C142.571 74.8408 159.772 57.8869 182.887 57.8868H191.042L184.85 63.2444Z" fill="#CAFF00"/>
</g>
</g>
<defs>
<filter id="filter0_d_24_691" x="0.825806" y="0" width="325.367" height="196.831" filterUnits="userSpaceOnUse" color-interpolation-filters="sRGB">
<feFlood flood-opacity="0" result="BackgroundImageFix"/>
<feColorMatrix in="SourceAlpha" type="matrix" values="0 0 0 0 0 0 0 0 0 0 0 0 0 0 0 0 0 0 127 0" result="hardAlpha"/>
<feOffset dy="4"/>
<feGaussianBlur stdDeviation="2"/>
<feComposite in2="hardAlpha" operator="out"/>
<feColorMatrix type="matrix" values="0 0 0 0 0 0 0 0 0 0 0 0 0 0 0 0 0 0 0.25 0"/>
<feBlend mode="normal" in2="BackgroundImageFix" result="effect1_dropShadow_24_691"/>
<feBlend mode="normal" in="SourceGraphic" in2="effect1_dropShadow_24_691" result="shape"/>
</filter>
<filter id="filter1_d_24_691" x="48.4324" y="143.63" width="242.587" height="53.2009" filterUnits="userSpaceOnUse" color-interpolation-filters="sRGB">
<feFlood flood-opacity="0" result="BackgroundImageFix"/>
<feColorMatrix in="SourceAlpha" type="matrix" values="0 0 0 0 0 0 0 0 0 0 0 0 0 0 0 0 0 0 127 0" result="hardAlpha"/>
<feOffset dy="4"/>
<feGaussianBlur stdDeviation="2"/>
<feComposite in2="hardAlpha" operator="out"/>
<feColorMatrix type="matrix" values="0 0 0 0 0 0 0 0 0 0 0 0 0 0 0 0 0 0 0.25 0"/>
<feBlend mode="normal" in2="BackgroundImageFix" result="effect1_dropShadow_24_691"/>
<feBlend mode="normal" in="SourceGraphic" in2="effect1_dropShadow_24_691" result="shape"/>
</filter>
<filter id="filter2_d_24_691" x="162" y="30.8817" width="164.192" height="114.501" filterUnits="userSpaceOnUse" color-interpolation-filters="sRGB">
<feFlood flood-opacity="0" result="BackgroundImageFix"/>
<feColorMatrix in="SourceAlpha" type="matrix" values="0 0 0 0 0 0 0 0 0 0 0 0 0 0 0 0 0 0 127 0" result="hardAlpha"/>
<feOffset dy="4"/>
<feGaussianBlur stdDeviation="2"/>
<feComposite in2="hardAlpha" operator="out"/>
<feColorMatrix type="matrix" values="0 0 0 0 0 0 0 0 0 0 0 0 0 0 0 0 0 0 0.25 0"/>
<feBlend mode="normal" in2="BackgroundImageFix" result="effect1_dropShadow_24_691"/>
<feBlend mode="normal" in="SourceGraphic" in2="effect1_dropShadow_24_691" result="shape"/>
</filter>
<filter id="filter3_d_24_691" x="0.825806" y="0" width="193.844" height="143.744" filterUnits="userSpaceOnUse" color-interpolation-filters="sRGB">
<feFlood flood-opacity="0" result="BackgroundImageFix"/>
<feColorMatrix in="SourceAlpha" type="matrix" values="0 0 0 0 0 0 0 0 0 0 0 0 0 0 0 0 0 0 127 0" result="hardAlpha"/>
<feOffset dy="4"/>
<feGaussianBlur stdDeviation="2"/>
<feComposite in2="hardAlpha" operator="out"/>
<feColorMatrix type="matrix" values="0 0 0 0 0 0 0 0 0 0 0 0 0 0 0 0 0 0 0.25 0"/>
<feBlend mode="normal" in2="BackgroundImageFix" result="effect1_dropShadow_24_691"/>
<feBlend mode="normal" in="SourceGraphic" in2="effect1_dropShadow_24_691" result="shape"/>
</filter>
<filter id="filter4_d_24_691" x="131.314" y="93.4755" width="23.7273" height="32.2631" filterUnits="userSpaceOnUse" color-interpolation-filters="sRGB">
<feFlood flood-opacity="0" result="BackgroundImageFix"/>
<feColorMatrix in="SourceAlpha" type="matrix" values="0 0 0 0 0 0 0 0 0 0 0 0 0 0 0 0 0 0 127 0" result="hardAlpha"/>
<feOffset dy="4"/>
<feGaussianBlur stdDeviation="2"/>
<feComposite in2="hardAlpha" operator="out"/>
<feColorMatrix type="matrix" values="0 0 0 0 0 0 0 0 0 0 0 0 0 0 0 0 0 0 0.25 0"/>
<feBlend mode="normal" in2="BackgroundImageFix" result="effect1_dropShadow_24_691"/>
<feBlend mode="normal" in="SourceGraphic" in2="effect1_dropShadow_24_691" result="shape"/>
</filter>
<filter id="filter5_d_24_691" x="34.7549" y="57.8868" width="261.121" height="99.2617" filterUnits="userSpaceOnUse" color-interpolation-filters="sRGB">
<feFlood flood-opacity="0" result="BackgroundImageFix"/>
<feColorMatrix in="SourceAlpha" type="matrix" values="0 0 0 0 0 0 0 0 0 0 0 0 0 0 0 0 0 0 127 0" result="hardAlpha"/>
<feOffset dy="4"/>
<feGaussianBlur stdDeviation="2"/>
<feComposite in2="hardAlpha" operator="out"/>
<feColorMatrix type="matrix" values="0 0 0 0 0 0 0 0 0 0 0 0 0 0 0 0 0 0 0.25 0"/>
<feBlend mode="normal" in2="BackgroundImageFix" result="effect1_dropShadow_24_691"/>
<feBlend mode="normal" in="SourceGraphic" in2="effect1_dropShadow_24_691" result="shape"/>
</filter>
</defs>
</svg>
